<svg width="50" height="20" viewBox="0 0 50 20" fill="none" xmlns="http://www.w3.org/2000/svg">
<rect width="50" height="20" rx="10" fill="url(#paint0_linear_372_29597)"/>
<path d="M8.71823 6.92818H10.0269L12.2714 12.4081H12.3543L14.5953 6.92818H15.904V14H14.8785V8.89641H14.8128L12.7341 13.9896H11.8847L9.80594 8.88605H9.74724V14H8.71823V6.92818ZM17.9456 14H16.8061L19.3475 6.92818H20.594L23.1355 14H21.9925L21.3468 12.1319H18.5913L17.9456 14ZM18.9021 11.2307H21.036L19.9967 8.21961H19.9414L18.9021 11.2307ZM24.0307 14V6.92818H25.1046V10.3018H25.1979L28.1537 6.92818H29.5038L26.655 10.1119L29.5142 14H28.2158L25.9437 10.8439L25.1046 11.8073V14H24.0307ZM30.3882 14V6.92818H34.8288V7.85359H31.462V9.99793H34.5974V10.9199H31.462V13.0746H34.8667V14H30.3882ZM36.1303 14V6.92818H38.658C40.2982 6.92818 41.1062 7.84323 41.1062 9.14503C41.1062 10.0946 40.678 10.8198 39.8147 11.1443L41.3755 14H40.1531L38.7167 11.3308H38.6545H37.2042V14H36.1303ZM37.2042 10.4054H38.5475C39.5903 10.4054 40.0254 9.94268 40.0254 9.14503C40.0254 8.34738 39.5903 7.85014 38.544 7.85014H37.2042V10.4054Z" fill="white"/>
<defs>
<linearGradient id="paint0_linear_372_29597" x1="3" y1="11" x2="47.6937" y2="7.30025" gradientUnits="userSpaceOnUse">
<stop stop-color="#AE9CFF"/>
<stop offset="1" stop-color="#E09EFF"/>
</linearGradient>
</defs>
</svg>
