<svg width="18" height="18" viewBox="0 0 18 18" fill="none" xmlns="http://www.w3.org/2000/svg">
<path d="M2.69922 4.74572C2.69922 3.61588 3.61514 2.69995 4.74499 2.69995H13.2534C14.3833 2.69995 15.2992 3.61588 15.2992 4.74572C15.2992 5.87039 14.3917 6.78309 13.269 6.79144C14.3917 6.7998 15.2992 7.71249 15.2992 8.83715C15.2992 9.79342 14.6431 10.5965 13.7565 10.8206C14.6431 11.0448 15.2992 11.8478 15.2992 12.8041C15.2992 13.9339 14.3833 14.8499 13.2534 14.8499H4.74499C3.61514 14.8499 2.69922 13.9339 2.69922 12.8041C2.69922 11.8478 3.35533 11.0448 4.24195 10.8206C3.35533 10.5965 2.69922 9.79342 2.69922 8.83715C2.69922 7.71249 3.60675 6.7998 4.72945 6.79144C3.60675 6.78309 2.69922 5.87039 2.69922 4.74572Z" fill="#FFB74B" stroke="#E59E34" stroke-width="0.675" stroke-linejoin="round"/>
</svg>
