<svg width="18" height="18" viewBox="0 0 18 18" fill="none" xmlns="http://www.w3.org/2000/svg">
<path fill-rule="evenodd" clip-rule="evenodd" d="M10.1991 1.80005H7.79912V6.10373L4.69559 3.0002L2.99854 4.69725L6.10137 7.80008L1.79883 7.80009L1.79883 10.2001H5.98165L2.99921 13.1825L4.69626 14.8796L7.79912 11.7767V16.2H10.1991V11.8978L13.1809 14.8796L14.8779 13.1825L11.8955 10.2001H16.1988V7.80008L11.7758 7.80008L14.8786 4.69725L13.1815 3.0002L10.1991 5.98262V1.80005Z" fill="#FFDC43"/>
<path d="M7.79912 1.80005V1.46255C7.61273 1.46255 7.46162 1.61365 7.46162 1.80005H7.79912ZM10.1991 1.80005H10.5366C10.5366 1.61365 10.3855 1.46255 10.1991 1.46255V1.80005ZM7.79912 6.10373L7.56047 6.34238C7.657 6.4389 7.80216 6.46778 7.92828 6.41554C8.05439 6.3633 8.13662 6.24023 8.13662 6.10373H7.79912ZM4.69559 3.0002L4.93424 2.76155C4.87095 2.69826 4.7851 2.6627 4.69559 2.6627C4.60608 2.6627 4.52024 2.69826 4.45694 2.76155L4.69559 3.0002ZM2.99854 4.69725L2.75989 4.4586C2.62808 4.59041 2.62808 4.8041 2.75989 4.9359L2.99854 4.69725ZM6.10137 7.80008L6.10137 8.13758C6.23787 8.13758 6.36094 8.05536 6.41318 7.92924C6.46541 7.80313 6.43654 7.65796 6.34002 7.56144L6.10137 7.80008ZM1.79883 7.80009L1.79883 7.46259C1.61243 7.46259 1.46133 7.61369 1.46133 7.80009L1.79883 7.80009ZM1.79883 10.2001L1.46133 10.2001C1.46133 10.3865 1.61243 10.5376 1.79883 10.5376V10.2001ZM5.98165 10.2001L6.2203 10.4387C6.31683 10.3422 6.3457 10.197 6.29346 10.0709C6.24122 9.94481 6.11816 9.86258 5.98165 9.86258V10.2001ZM2.99921 13.1825L2.76056 12.9439C2.69726 13.0072 2.66171 13.093 2.66171 13.1825C2.66171 13.272 2.69726 13.3579 2.76056 13.4212L2.99921 13.1825ZM4.69626 14.8796L4.45761 15.1182C4.58942 15.25 4.80311 15.25 4.93491 15.1182L4.69626 14.8796ZM7.79912 11.7767H8.13662C8.13662 11.6402 8.05439 11.5172 7.92828 11.4649C7.80216 11.4127 7.657 11.4416 7.56047 11.5381L7.79912 11.7767ZM7.79912 16.2H7.46162C7.46162 16.3864 7.61273 16.5375 7.79912 16.5375V16.2ZM10.1991 16.2V16.5375C10.3855 16.5375 10.5366 16.3864 10.5366 16.2H10.1991ZM10.1991 11.8978L10.4378 11.6592C10.3412 11.5627 10.1961 11.5338 10.07 11.586C9.94385 11.6383 9.86162 11.7613 9.86162 11.8978H10.1991ZM13.1809 14.8796L12.9422 15.1182C13.074 15.25 13.2877 15.25 13.4195 15.1182L13.1809 14.8796ZM14.8779 13.1825L15.1166 13.4212C15.1799 13.3579 15.2154 13.272 15.2154 13.1825C15.2154 13.093 15.1799 13.0072 15.1166 12.9439L14.8779 13.1825ZM11.8955 10.2001V9.86258C11.759 9.86258 11.6359 9.94481 11.5837 10.0709C11.5314 10.197 11.5603 10.3422 11.6568 10.4387L11.8955 10.2001ZM16.1988 10.2001V10.5376C16.3852 10.5376 16.5363 10.3865 16.5363 10.2001H16.1988ZM16.1988 7.80008H16.5363C16.5363 7.71057 16.5008 7.62473 16.4375 7.56144C16.3742 7.49814 16.2883 7.46258 16.1988 7.46258L16.1988 7.80008ZM11.7758 7.80008L11.5371 7.56144C11.4406 7.65796 11.4117 7.80313 11.464 7.92924C11.5162 8.05536 11.6393 8.13758 11.7758 8.13758L11.7758 7.80008ZM14.8786 4.69725L15.1172 4.9359C15.249 4.8041 15.249 4.5904 15.1172 4.4586L14.8786 4.69725ZM13.1815 3.0002L13.4202 2.76155C13.3569 2.69825 13.2711 2.6627 13.1815 2.6627C13.092 2.6627 13.0062 2.69825 12.9429 2.76155L13.1815 3.0002ZM10.1991 5.98262H9.86162C9.86162 6.11912 9.94385 6.24219 10.07 6.29443C10.1961 6.34667 10.3412 6.31779 10.4378 6.22127L10.1991 5.98262ZM7.79912 2.13755H10.1991V1.46255H7.79912V2.13755ZM8.13662 6.10373V1.80005H7.46162V6.10373H8.13662ZM4.45694 3.23885L7.56047 6.34238L8.03777 5.86508L4.93424 2.76155L4.45694 3.23885ZM3.23718 4.9359L4.93424 3.23885L4.45694 2.76155L2.75989 4.4586L3.23718 4.9359ZM6.34002 7.56144L3.23718 4.4586L2.75989 4.9359L5.86272 8.03873L6.34002 7.56144ZM1.79883 8.13759L6.10137 8.13758L6.10137 7.46258L1.79883 7.46259L1.79883 8.13759ZM2.13633 10.2001L2.13633 7.80009L1.46133 7.80009L1.46133 10.2001L2.13633 10.2001ZM5.98165 9.86258H1.79883V10.5376H5.98165V9.86258ZM3.23785 13.4212L6.2203 10.4387L5.74301 9.96144L2.76056 12.9439L3.23785 13.4212ZM4.93491 14.6409L3.23785 12.9439L2.76056 13.4212L4.45761 15.1182L4.93491 14.6409ZM7.56047 11.5381L4.45761 14.6409L4.93491 15.1182L8.03777 12.0154L7.56047 11.5381ZM8.13662 16.2V11.7767H7.46162V16.2H8.13662ZM10.1991 15.8625H7.79912V16.5375H10.1991V15.8625ZM9.86162 11.8978V16.2H10.5366V11.8978H9.86162ZM13.4195 14.6409L10.4378 11.6592L9.96047 12.1365L12.9422 15.1182L13.4195 14.6409ZM14.6393 12.9439L12.9422 14.6409L13.4195 15.1182L15.1166 13.4212L14.6393 12.9439ZM11.6568 10.4387L14.6393 13.4212L15.1166 12.9439L12.1341 9.96144L11.6568 10.4387ZM16.1988 9.86258H11.8955V10.5376H16.1988V9.86258ZM15.8613 7.80008V10.2001H16.5363V7.80008H15.8613ZM11.7758 8.13758L16.1988 8.13758L16.1988 7.46258L11.7758 7.46258L11.7758 8.13758ZM14.64 4.4586L11.5371 7.56144L12.0144 8.03873L15.1172 4.9359L14.64 4.4586ZM12.9429 3.23884L14.64 4.9359L15.1172 4.4586L13.4202 2.76155L12.9429 3.23884ZM10.4378 6.22127L13.4202 3.23884L12.9429 2.76155L9.96047 5.74397L10.4378 6.22127ZM9.86162 1.80005V5.98262H10.5366V1.80005H9.86162Z" fill="#F0CA23"/>
</svg>
