<svg width="38" height="38" viewBox="0 0 38 38" fill="none" xmlns="http://www.w3.org/2000/svg">
<circle cx="19" cy="19" r="10" fill="#E9EBED"/>
<path d="M19.5 14.75C19.5 14.5511 19.421 14.3603 19.2803 14.2197C19.1397 14.079 18.9489 14 18.75 14C18.5511 14 18.3603 14.079 18.2197 14.2197C18.079 14.3603 18 14.5511 18 14.75V18H14.75C14.5511 18 14.3603 18.079 14.2197 18.2197C14.079 18.3603 14 18.5511 14 18.75C14 18.9489 14.079 19.1397 14.2197 19.2803C14.3603 19.421 14.5511 19.5 14.75 19.5H18V22.75C18 22.9489 18.079 23.1397 18.2197 23.2803C18.3603 23.421 18.5511 23.5 18.75 23.5C18.9489 23.5 19.1397 23.421 19.2803 23.2803C19.421 23.1397 19.5 22.9489 19.5 22.75V19.5H22.75C22.9489 19.5 23.1397 19.421 23.2803 19.2803C23.421 19.1397 23.5 18.9489 23.5 18.75C23.5 18.5511 23.421 18.3603 23.2803 18.2197C23.1397 18.079 22.9489 18 22.75 18H19.5V14.75Z" fill="#9FA4A9"/>
</svg>
