<svg width="24" height="24" viewBox="0 0 24 24" fill="none" xmlns="http://www.w3.org/2000/svg">
<circle cx="12" cy="12" r="9.58333" fill="#4A4A4A" stroke="#4A4A4A" stroke-width="0.833333"/>
<g clip-path="url(#clip0_2596_19177)">
<path fill-rule="evenodd" clip-rule="evenodd" d="M16.775 9.21984C16.9156 9.36049 16.9946 9.55122 16.9946 9.75009C16.9946 9.94896 16.9156 10.1397 16.775 10.2803L11.1535 15.9018C11.0792 15.9761 10.991 16.0351 10.8939 16.0753C10.7968 16.1155 10.6928 16.1362 10.5877 16.1362C10.4826 16.1362 10.3786 16.1155 10.2815 16.0753C10.1845 16.0351 10.0963 15.9761 10.022 15.9018L7.22897 13.1093C7.15733 13.0402 7.1002 12.9574 7.06089 12.8659C7.02158 12.7744 7.00089 12.676 7.00003 12.5764C6.99916 12.4768 7.01814 12.378 7.05585 12.2859C7.09356 12.1937 7.14925 12.11 7.21967 12.0395C7.29009 11.9691 7.37383 11.9134 7.466 11.8757C7.55817 11.838 7.65693 11.819 7.75652 11.8199C7.8561 11.8208 7.95452 11.8415 8.04602 11.8808C8.13752 11.9201 8.22028 11.9772 8.28947 12.0488L10.5875 14.3468L15.714 9.21984C15.7836 9.15014 15.8663 9.09486 15.9573 9.05714C16.0484 9.01942 16.1459 9 16.2445 9C16.343 9 16.4406 9.01942 16.5316 9.05714C16.6226 9.09486 16.7053 9.15014 16.775 9.21984Z" fill="white"/>
</g>
<defs>
<clipPath id="clip0_2596_19177">
<rect width="12" height="12" fill="white" transform="translate(7 8)"/>
</clipPath>
</defs>
</svg>
