<svg width="18" height="18" viewBox="0 0 18 18" fill="none" xmlns="http://www.w3.org/2000/svg">
<path fill-rule="evenodd" clip-rule="evenodd" d="M9.52801 3.50132C9.32401 3.73983 8.67365 3.73983 8.46965 3.50132C7.87842 2.81006 6.77551 2.11188 4.93663 2.27359C2.18678 2.5154 1.7076 5.32498 1.81176 6.53408C1.81177 7.54166 2.12428 9.22591 3.99918 11.3705C5.12791 12.6615 6.88114 13.8488 8.07131 14.6548C8.45037 14.9115 8.77232 15.1296 8.99878 15.2999C8.99879 15.3 8.99879 15.3 8.99879 15.3V15.3C8.99879 15.3 8.99881 15.3 8.99882 15.3V15.3C8.99882 15.3 8.99883 15.3 8.99884 15.3V15.3C8.99885 15.3 8.99887 15.3 8.99887 15.3V15.3C8.99887 15.3 8.99887 15.3 8.99888 15.2999C9.22534 15.1296 9.54728 14.9115 9.92634 14.6548C11.1165 13.8488 12.8697 12.6615 13.9985 11.3705C15.8734 9.22591 16.1859 7.54166 16.1859 6.53408C16.2901 5.32498 15.8109 2.5154 13.061 2.27359C11.2221 2.11188 10.1192 2.81006 9.52801 3.50132Z" fill="#FF7086"/>
<path d="M4.93663 2.27359L4.96619 2.60979L4.96619 2.60979L4.93663 2.27359ZM1.81176 6.53408L2.14926 6.53408L2.14926 6.51957L2.14802 6.50511L1.81176 6.53408ZM3.99918 11.3705L4.25326 11.1483L4.25326 11.1483L3.99918 11.3705ZM8.07131 14.6548L8.26056 14.3754L8.26056 14.3754L8.07131 14.6548ZM9.92634 14.6548L9.7371 14.3754L9.7371 14.3754L9.92634 14.6548ZM13.9985 11.3705L13.7444 11.1483L13.7444 11.1483L13.9985 11.3705ZM16.1859 6.53408L15.8496 6.50511L15.8484 6.51957L15.8484 6.53408L16.1859 6.53408ZM13.061 2.27359L13.0315 2.60979L13.0315 2.60979L13.061 2.27359ZM8.99888 15.2999L8.79597 15.0303L8.99888 15.2999ZM8.99878 15.2999L9.20169 15.0303L8.99878 15.2999ZM4.96619 2.60979C6.69345 2.45789 7.69083 3.10999 8.21316 3.72069L8.72613 3.28195C8.066 2.51014 6.85756 1.76586 4.90706 1.93738L4.96619 2.60979ZM2.14802 6.50511C2.10023 5.95038 2.18821 5.01127 2.60463 4.19438C3.01216 3.39492 3.72719 2.71874 4.96619 2.60979L4.90706 1.93738C3.39621 2.07025 2.49673 2.91977 2.00325 3.88782C1.51866 4.83845 1.41914 5.90868 1.47551 6.56305L2.14802 6.50511ZM4.25326 11.1483C2.42994 9.06276 2.14927 7.45667 2.14926 6.53408L1.47426 6.53408C1.47428 7.62664 1.81862 9.38906 3.74509 11.5926L4.25326 11.1483ZM8.26056 14.3754C7.06147 13.5634 5.34782 12.4003 4.25326 11.1483L3.74509 11.5926C4.908 12.9228 6.70081 14.1343 7.88207 14.9343L8.26056 14.3754ZM9.20169 15.0303C8.9669 14.8536 8.63662 14.6301 8.26056 14.3754L7.88206 14.9343C8.26412 15.193 8.57773 15.4055 8.79588 15.5696L9.20169 15.0303ZM8.66129 15.3V15.3H9.33629V15.3H8.66129ZM8.66137 15.3V15.3H9.33637V15.3H8.66137ZM9.20178 15.5696C9.41992 15.4055 9.73353 15.193 10.1156 14.9343L9.7371 14.3754C9.36103 14.6301 9.03075 14.8536 8.79597 15.0303L9.20178 15.5696ZM10.1156 14.9343C11.2968 14.1343 13.0897 12.9228 14.2526 11.5926L13.7444 11.1483C12.6498 12.4003 10.9362 13.5634 9.7371 14.3754L10.1156 14.9343ZM14.2526 11.5926C16.179 9.38906 16.5234 7.62664 16.5234 6.53408L15.8484 6.53408C15.8484 7.45667 15.5677 9.06276 13.7444 11.1483L14.2526 11.5926ZM16.5221 6.56305C16.5785 5.90868 16.479 4.83845 15.9944 3.88782C15.5009 2.91977 14.6014 2.07025 13.0906 1.93738L13.0315 2.60979C14.2705 2.71874 14.9855 3.39492 15.393 4.19438C15.8094 5.01127 15.8974 5.95038 15.8496 6.50511L16.5221 6.56305ZM13.0906 1.93738C11.1401 1.76586 9.93165 2.51014 9.27153 3.28195L9.78449 3.72069C10.3068 3.10999 11.3042 2.45789 13.0315 2.60979L13.0906 1.93738ZM9.33637 15.3C9.33637 15.4039 9.2882 15.5046 9.20178 15.5696L8.79597 15.0303C8.70954 15.0953 8.66137 15.196 8.66137 15.3H9.33637ZM8.79603 15.5698C9.0197 15.7379 9.33637 15.5768 9.33637 15.3H8.66137C8.66137 15.0232 8.978 14.8621 9.20164 15.0302L8.79603 15.5698ZM9.19971 15.5712C9.08055 15.6595 8.91632 15.6602 8.79603 15.5698L9.20164 15.0302C9.08134 14.9398 8.9171 14.9405 8.79793 15.0288L9.19971 15.5712ZM8.79588 15.5696C8.70946 15.5046 8.66129 15.4039 8.66129 15.3H9.33629C9.33629 15.196 9.28811 15.0953 9.20169 15.0303L8.79588 15.5696ZM8.66129 15.3C8.66129 15.5799 8.97913 15.7346 9.19971 15.5712L8.79793 15.0288C9.01848 14.8654 9.33629 15.0201 9.33629 15.3H8.66129ZM8.21316 3.72069C8.3191 3.84454 8.4619 3.91594 8.58921 3.95682C8.72042 3.99895 8.86271 4.0177 8.99883 4.0177C9.13495 4.0177 9.27723 3.99895 9.40845 3.95682C9.53575 3.91594 9.67856 3.84454 9.78449 3.72069L9.27153 3.28195C9.27546 3.27734 9.26047 3.29539 9.20208 3.31414C9.14761 3.33163 9.0763 3.3427 8.99883 3.3427C8.92136 3.3427 8.85005 3.33163 8.79558 3.31414C8.73718 3.29539 8.72219 3.27734 8.72613 3.28195L8.21316 3.72069Z" fill="#F85770"/>
</svg>
