<svg width="24" height="24" viewBox="0 0 24 24" fill="none" xmlns="http://www.w3.org/2000/svg">
<circle cx="12" cy="12" r="10" fill="#E9EBED"/>
<path d="M12.5 7.75C12.5 7.55109 12.421 7.36032 12.2803 7.21967C12.1397 7.07902 11.9489 7 11.75 7C11.5511 7 11.3603 7.07902 11.2197 7.21967C11.079 7.36032 11 7.55109 11 7.75V11H7.75C7.55109 11 7.36032 11.079 7.21967 11.2197C7.07902 11.3603 7 11.5511 7 11.75C7 11.9489 7.07902 12.1397 7.21967 12.2803C7.36032 12.421 7.55109 12.5 7.75 12.5H11V15.75C11 15.9489 11.079 16.1397 11.2197 16.2803C11.3603 16.421 11.5511 16.5 11.75 16.5C11.9489 16.5 12.1397 16.421 12.2803 16.2803C12.421 16.1397 12.5 15.9489 12.5 15.75V12.5H15.75C15.9489 12.5 16.1397 12.421 16.2803 12.2803C16.421 12.1397 16.5 11.9489 16.5 11.75C16.5 11.5511 16.421 11.3603 16.2803 11.2197C16.1397 11.079 15.9489 11 15.75 11H12.5V7.75Z" fill="#9FA4A9"/>
</svg>
