<svg width="24" height="25" viewBox="0 0 24 25" fill="none" xmlns="http://www.w3.org/2000/svg">
<circle cx="12" cy="12.625" r="10" fill="#E9EBED"/>
<path d="M12.5 8.375C12.5 8.17609 12.421 7.98532 12.2803 7.84467C12.1397 7.70402 11.9489 7.625 11.75 7.625C11.5511 7.625 11.3603 7.70402 11.2197 7.84467C11.079 7.98532 11 8.17609 11 8.375V11.625H7.75C7.55109 11.625 7.36032 11.704 7.21967 11.8447C7.07902 11.9853 7 12.1761 7 12.375C7 12.5739 7.07902 12.7647 7.21967 12.9053C7.36032 13.046 7.55109 13.125 7.75 13.125H11V16.375C11 16.5739 11.079 16.7647 11.2197 16.9053C11.3603 17.046 11.5511 17.125 11.75 17.125C11.9489 17.125 12.1397 17.046 12.2803 16.9053C12.421 16.7647 12.5 16.5739 12.5 16.375V13.125H15.75C15.9489 13.125 16.1397 13.046 16.2803 12.9053C16.421 12.7647 16.5 12.5739 16.5 12.375C16.5 12.1761 16.421 11.9853 16.2803 11.8447C16.1397 11.704 15.9489 11.625 15.75 11.625H12.5V8.375Z" fill="#9FA4A9"/>
</svg>
