<svg width="18" height="18" viewBox="0 0 18 18" fill="none" xmlns="http://www.w3.org/2000/svg">
<path d="M14.0681 5.53217C14.2804 5.31992 14.3996 5.03205 14.3996 4.73188C14.3996 4.43171 14.2804 4.14384 14.0681 3.93159C13.8559 3.71934 13.568 3.6001 13.2678 3.6001C12.9677 3.6001 12.6798 3.71934 12.4675 3.93159L8.99961 7.39952L5.53168 3.93159C5.31943 3.71934 5.03156 3.6001 4.73139 3.6001C4.43122 3.6001 4.14335 3.71934 3.9311 3.93159C3.71885 4.14384 3.59961 4.43171 3.59961 4.73188C3.59961 5.03205 3.71885 5.31992 3.9311 5.53217L7.39903 9.0001L3.9311 12.468C3.71885 12.6803 3.59961 12.9681 3.59961 13.2683C3.59961 13.5685 3.71885 13.8564 3.9311 14.0686C4.14335 14.2809 4.43122 14.4001 4.73139 14.4001C5.03156 14.4001 5.31943 14.2809 5.53168 14.0686L8.99961 10.6007L12.4675 14.0686C12.6798 14.2809 12.9677 14.4001 13.2678 14.4001C13.568 14.4001 13.8559 14.2809 14.0681 14.0686C14.2804 13.8564 14.3996 13.5685 14.3996 13.2683C14.3996 12.9681 14.2804 12.6803 14.0681 12.468L10.6002 9.0001L14.0681 5.53217Z" fill="#9FA4A9"/>
</svg>
