<svg width="24" height="24" viewBox="0 0 24 24" fill="none" xmlns="http://www.w3.org/2000/svg">
<path d="M7.01293 10.5752C6.22916 10.5752 5.58789 11.2165 5.58789 12.0002C5.58789 12.784 6.22916 13.4253 7.01293 13.4253C7.7967 13.4253 8.43796 12.784 8.43796 12.0002C8.43796 11.2165 7.7967 10.5752 7.01293 10.5752ZM16.9882 10.5752C16.2044 10.5752 15.5631 11.2165 15.5631 12.0002C15.5631 12.784 16.2044 13.4253 16.9882 13.4253C17.7719 13.4253 18.4132 12.784 18.4132 12.0002C18.4132 11.2165 17.7719 10.5752 16.9882 10.5752ZM12.0006 10.5752C11.2168 10.5752 10.5755 11.2165 10.5755 12.0002C10.5755 12.784 11.2168 13.4253 12.0006 13.4253C12.7843 13.4253 13.4256 12.784 13.4256 12.0002C13.4256 11.2165 12.7843 10.5752 12.0006 10.5752Z" fill="#9FA4A9"/>
</svg>
