<svg width="19" height="18" viewBox="0 0 19 18" fill="none" xmlns="http://www.w3.org/2000/svg">
<path fill-rule="evenodd" clip-rule="evenodd" d="M4.49982 8C4.30206 8.00004 4.10876 8.05872 3.94434 8.1686C3.77993 8.27849 3.65178 8.43466 3.57611 8.61736C3.50044 8.80007 3.48063 9.00111 3.5192 9.19507C3.55777 9.38903 3.65298 9.5672 3.79279 9.70705L8.79297 14.7072C8.98051 14.8947 9.23483 15 9.5 15C9.76517 15 10.0195 14.8947 10.207 14.7072L15.2072 9.70705C15.347 9.5672 15.4422 9.38903 15.4808 9.19507C15.5194 9.00111 15.4996 8.80007 15.4239 8.61737C15.3482 8.43466 15.2201 8.27849 15.0557 8.1686C14.8912 8.05872 14.6979 8.00004 14.5002 8L4.49982 8Z" fill="#4A4A4A"/>
<path fill-rule="evenodd" clip-rule="evenodd" d="M4.49982 3C4.30206 3.00004 4.10876 3.05872 3.94434 3.1686C3.77993 3.27849 3.65178 3.43466 3.57611 3.61736C3.50044 3.80007 3.48063 4.00111 3.5192 4.19507C3.55777 4.38903 3.65298 4.5672 3.79279 4.70705L8.79297 9.7072C8.98051 9.89468 9.23483 10 9.5 10C9.76517 10 10.0195 9.89468 10.207 9.7072L15.2072 4.70705C15.347 4.5672 15.4422 4.38903 15.4808 4.19507C15.5194 4.00111 15.4996 3.80007 15.4239 3.61737C15.3482 3.43466 15.2201 3.27849 15.0557 3.1686C14.8912 3.05872 14.6979 3.00004 14.5002 3L4.49982 3Z" fill="#4A4A4A" fill-opacity="0.4"/>
</svg>
