<svg width="66" height="30" viewBox="0 0 66 30" fill="none" xmlns="http://www.w3.org/2000/svg">
<rect width="66" height="30" rx="15" fill="#E9EBED"/>
<path d="M12.043 12.5898C12.043 13.1406 12.1562 13.6992 12.3828 14.2656C12.6094 14.8281 12.9258 15.3398 13.332 15.8008C13.7422 16.2578 14.207 16.6094 14.7266 16.8555L14.0938 17.7227C13.5156 17.4453 13 17.0312 12.5469 16.4805C12.0938 15.9258 11.7461 15.3008 11.5039 14.6055C11.2617 15.3594 10.9043 16.0391 10.4316 16.6445C9.96289 17.2461 9.43359 17.6953 8.84375 17.9922L8.1875 17.1133C8.70703 16.8633 9.17578 16.4961 9.59375 16.0117C10.0156 15.5234 10.3457 14.9785 10.584 14.377C10.8223 13.7715 10.9414 13.1758 10.9414 12.5898V11.4766H8.57422V10.5508H14.3281V11.4766H12.043V12.5898ZM15.4531 9.49609H16.5664V13.6562H18.2539V14.5938H16.5664V19.9961H15.4531V9.49609ZM21.957 12.3672C21.957 12.9375 22.0371 13.502 22.1973 14.0605C22.3574 14.6152 22.5957 15.123 22.9121 15.584C23.2285 16.0449 23.6133 16.4141 24.0664 16.6914L23.4453 17.5469C22.9688 17.2617 22.5605 16.873 22.2207 16.3809C21.8848 15.8848 21.623 15.3223 21.4355 14.6934C21.2402 15.377 20.9609 15.9863 20.5977 16.5215C20.2383 17.0566 19.8086 17.4766 19.3086 17.7812L18.6172 16.9492C19.0977 16.6602 19.5078 16.2754 19.8477 15.7949C20.1914 15.3145 20.4492 14.7832 20.6211 14.2012C20.7969 13.6152 20.8828 13.0195 20.8789 12.4141V10.457H21.957V12.3672ZM22.9297 13.1875H24.5586V9.69531H25.6133V19.4805H24.5586V14.1133H22.9297V13.1875ZM26.7266 9.49609H27.793V19.9961H26.7266V9.49609ZM37.8242 19.9961H36.7109V9.49609H37.8242V19.9961ZM29.3633 11.1602H31.9531V9.60156H33.0781V11.1602H35.6914V12.0625H29.3633V11.1602ZM29.9023 15.2617C29.9023 14.793 30.0137 14.373 30.2363 14.002C30.4629 13.6309 30.7773 13.3418 31.1797 13.1348C31.582 12.9277 32.0352 12.8242 32.5391 12.8242C33.043 12.8242 33.4961 12.9277 33.8984 13.1348C34.3008 13.3418 34.6152 13.6309 34.8418 14.002C35.0723 14.373 35.1875 14.793 35.1875 15.2617C35.1875 15.7344 35.0723 16.1562 34.8418 16.5273C34.6152 16.8984 34.3008 17.1895 33.8984 17.4004C33.4961 17.6074 33.043 17.7109 32.5391 17.7109C32.0352 17.7109 31.582 17.6074 31.1797 17.4004C30.7773 17.1895 30.4629 16.8984 30.2363 16.5273C30.0137 16.1562 29.9023 15.7344 29.9023 15.2617ZM30.957 15.2617C30.957 15.5625 31.0234 15.8281 31.1562 16.0586C31.293 16.2891 31.4805 16.4668 31.7188 16.5918C31.9609 16.7168 32.2344 16.7773 32.5391 16.7734C32.8438 16.7773 33.1152 16.7168 33.3535 16.5918C33.5957 16.4668 33.7832 16.2891 33.916 16.0586C34.0527 15.8281 34.1211 15.5625 34.1211 15.2617C34.1211 14.9688 34.0527 14.707 33.916 14.4766C33.7832 14.2461 33.5957 14.0664 33.3535 13.9375C33.1152 13.8047 32.8438 13.7383 32.5391 13.7383C32.2344 13.7383 31.9609 13.8047 31.7188 13.9375C31.4805 14.0664 31.293 14.2461 31.1562 14.4766C31.0234 14.707 30.957 14.9688 30.957 15.2617Z" fill="#9FA4A9"/>
<path fill-rule="evenodd" clip-rule="evenodd" d="M53.4994 13.9999C53.4994 14.5908 53.383 15.176 53.1569 15.722C52.9307 16.2679 52.5993 16.764 52.1814 17.1819C51.7635 17.5997 51.2675 17.9312 50.7215 18.1574C50.1755 18.3835 49.5904 18.4999 48.9994 18.4999C48.4085 18.4999 47.8233 18.3835 47.2773 18.1574C46.7314 17.9312 46.2353 17.5997 45.8174 17.1819C45.3996 16.764 45.0681 16.2679 44.842 15.722C44.6158 15.176 44.4994 14.5908 44.4994 13.9999C44.4994 12.8064 44.9735 11.6618 45.8174 10.8179C46.6613 9.974 47.8059 9.4999 48.9994 9.4999C50.1929 9.4999 51.3375 9.974 52.1814 10.8179C53.0253 11.6618 53.4994 12.8064 53.4994 13.9999ZM52.6794 18.7399C51.4738 19.6759 49.9568 20.1172 48.4372 19.974C46.9176 19.8309 45.5098 19.114 44.5002 17.9693C43.4906 16.8246 42.9552 15.3382 43.0029 13.8126C43.0507 12.2871 43.6781 10.8371 44.7574 9.75785C45.8366 8.6786 47.2866 8.05122 48.8122 8.00343C50.3377 7.95565 51.8241 8.49105 52.9688 9.50065C54.1135 10.5102 54.8304 11.9181 54.9736 13.4377C55.1167 14.9573 54.6754 16.4743 53.7394 17.6799L56.5294 20.4699C56.6031 20.5386 56.6622 20.6214 56.7032 20.7134C56.7442 20.8054 56.7662 20.9047 56.768 21.0054C56.7698 21.1061 56.7513 21.2061 56.7135 21.2995C56.6758 21.3929 56.6197 21.4777 56.5484 21.5489C56.4772 21.6202 56.3924 21.6763 56.299 21.714C56.2056 21.7517 56.1056 21.7703 56.0049 21.7685C55.9042 21.7667 55.8049 21.7447 55.7129 21.7037C55.6209 21.6627 55.5381 21.6036 55.4694 21.5299L52.6794 18.7399Z" fill="#9FA4A9"/>
</svg>
