<svg width="38" height="38" viewBox="0 0 38 38" fill="none" xmlns="http://www.w3.org/2000/svg">
<circle cx="19" cy="19" r="9.58333" fill="#4A4A4A" stroke="#4A4A4A" stroke-width="0.833333"/>
<g clip-path="url(#clip0_2995_8591)">
<path fill-rule="evenodd" clip-rule="evenodd" d="M23.775 16.2198C23.9156 16.3605 23.9946 16.5512 23.9946 16.7501C23.9946 16.949 23.9156 17.1397 23.775 17.2803L18.1535 22.9018C18.0792 22.9761 17.991 23.0351 17.8939 23.0753C17.7968 23.1155 17.6928 23.1362 17.5877 23.1362C17.4826 23.1362 17.3786 23.1155 17.2815 23.0753C17.1845 23.0351 17.0963 22.9761 17.022 22.9018L14.229 20.1093C14.1573 20.0402 14.1002 19.9574 14.0609 19.8659C14.0216 19.7744 14.0009 19.676 14 19.5764C13.9992 19.4768 14.0181 19.378 14.0558 19.2859C14.0936 19.1937 14.1493 19.11 14.2197 19.0395C14.2901 18.9691 14.3738 18.9134 14.466 18.8757C14.5582 18.838 14.6569 18.819 14.7565 18.8199C14.8561 18.8208 14.9545 18.8415 15.046 18.8808C15.1375 18.9201 15.2203 18.9772 15.2895 19.0488L17.5875 21.3468L22.714 16.2198C22.7836 16.1501 22.8663 16.0949 22.9573 16.0571C23.0484 16.0194 23.1459 16 23.2445 16C23.343 16 23.4406 16.0194 23.5316 16.0571C23.6226 16.0949 23.7053 16.1501 23.775 16.2198Z" fill="white"/>
</g>
<defs>
<clipPath id="clip0_2995_8591">
<rect width="12" height="12" fill="white" transform="translate(14 15)"/>
</clipPath>
</defs>
</svg>
