<svg width="18" height="18" viewBox="0 0 18 18" fill="none" xmlns="http://www.w3.org/2000/svg">
<path fill-rule="evenodd" clip-rule="evenodd" d="M8.99883 16.2C12.9753 16.2 16.1988 12.9765 16.1988 9.00005C16.1988 5.0236 12.9753 1.80005 8.99883 1.80005C5.02238 1.80005 1.79883 5.0236 1.79883 9.00005C1.79883 12.9765 5.02238 16.2 8.99883 16.2ZM8.99933 11.8173C10.5553 11.8173 11.8167 10.5559 11.8167 8.99989C11.8167 7.44388 10.5553 6.18249 8.99933 6.18249C7.44332 6.18249 6.18193 7.44388 6.18193 8.99989C6.18193 10.5559 7.44332 11.8173 8.99933 11.8173Z" fill="#7797EA"/>
<path d="M15.8613 9.00005C15.8613 12.7901 12.7889 15.8625 8.99883 15.8625V16.5375C13.1617 16.5375 16.5363 13.1629 16.5363 9.00005H15.8613ZM8.99883 2.13755C12.7889 2.13755 15.8613 5.20999 15.8613 9.00005H16.5363C16.5363 4.8372 13.1617 1.46255 8.99883 1.46255V2.13755ZM2.13633 9.00005C2.13633 5.20999 5.20877 2.13755 8.99883 2.13755V1.46255C4.83598 1.46255 1.46133 4.8372 1.46133 9.00005H2.13633ZM8.99883 15.8625C5.20877 15.8625 2.13633 12.7901 2.13633 9.00005H1.46133C1.46133 13.1629 4.83598 16.5375 8.99883 16.5375V15.8625ZM11.4792 8.99989C11.4792 10.3695 10.3689 11.4798 8.99933 11.4798V12.1548C10.7417 12.1548 12.1542 10.7423 12.1542 8.99989H11.4792ZM8.99933 6.51999C10.3689 6.51999 11.4792 7.63028 11.4792 8.99989H12.1542C12.1542 7.25749 10.7417 5.84499 8.99933 5.84499V6.51999ZM6.51943 8.99989C6.51943 7.63028 7.62972 6.51999 8.99933 6.51999V5.84499C7.25693 5.84499 5.84443 7.25749 5.84443 8.99989H6.51943ZM8.99933 11.4798C7.62972 11.4798 6.51943 10.3695 6.51943 8.99989H5.84443C5.84443 10.7423 7.25693 12.1548 8.99933 12.1548V11.4798Z" fill="#6280CD"/>
</svg>
