<svg width="18" height="18" viewBox="0 0 18 18" fill="none" xmlns="http://www.w3.org/2000/svg">
<path fill-rule="evenodd" clip-rule="evenodd" d="M11.5198 2.27051C11.2085 2.27051 10.9562 2.52287 10.9562 2.83417V6.24108H6.75526C6.44396 6.24108 6.1916 6.49344 6.1916 6.80474V10.2118H2.78436C2.47306 10.2118 2.2207 10.4641 2.2207 10.7754V15.2069C2.2207 15.5182 2.47306 15.7706 2.78436 15.7706H15.157C15.4683 15.7706 15.7207 15.5182 15.7207 15.2069V14.4267C15.7208 14.422 15.7208 14.4174 15.7208 14.4127V13.6316C15.7209 13.6272 15.721 13.6229 15.721 13.6186V6.80474C15.721 6.80039 15.7209 6.79606 15.7208 6.79174V2.83417C15.7208 2.52287 15.4685 2.27051 15.1572 2.27051H11.5198Z" fill="#84E0A3"/>
<path d="M10.9562 6.24108V6.57858H11.2937V6.24108H10.9562ZM6.1916 10.2118V10.5493H6.5291V10.2118H6.1916ZM15.7207 14.4267L15.3832 14.4185V14.4267H15.7207ZM15.7208 13.6316L15.3833 13.6239V13.6316H15.7208ZM15.7208 6.79174H15.3833L15.3834 6.79934L15.7208 6.79174ZM11.2937 2.83417C11.2937 2.70926 11.3949 2.60801 11.5198 2.60801V1.93301C11.0221 1.93301 10.6187 2.33647 10.6187 2.83417H11.2937ZM11.2937 6.24108V2.83417H10.6187V6.24108H11.2937ZM10.9562 5.90358H6.75526V6.57858H10.9562V5.90358ZM6.75526 5.90358C6.25756 5.90358 5.8541 6.30704 5.8541 6.80474H6.5291C6.5291 6.67983 6.63036 6.57858 6.75526 6.57858V5.90358ZM5.8541 6.80474V10.2118H6.5291V6.80474H5.8541ZM6.1916 9.87426H2.78436V10.5493H6.1916V9.87426ZM2.78436 9.87426C2.28667 9.87426 1.8832 10.2777 1.8832 10.7754H2.5582C2.5582 10.6505 2.65946 10.5493 2.78436 10.5493V9.87426ZM1.8832 10.7754V15.2069H2.5582V10.7754H1.8832ZM1.8832 15.2069C1.8832 15.7046 2.28666 16.1081 2.78436 16.1081V15.4331C2.65946 15.4331 2.5582 15.3318 2.5582 15.2069H1.8832ZM2.78436 16.1081H15.157V15.4331H2.78436V16.1081ZM15.157 16.1081C15.6547 16.1081 16.0582 15.7046 16.0582 15.2069H15.3832C15.3832 15.3318 15.2819 15.4331 15.157 15.4331V16.1081ZM16.0582 15.2069V14.4267H15.3832V15.2069H16.0582ZM15.3833 14.4127C15.3833 14.4146 15.3833 14.4165 15.3833 14.4185L16.0581 14.4349C16.0583 14.4275 16.0583 14.4201 16.0583 14.4127H15.3833ZM15.3833 13.6316V14.4127H16.0583V13.6316H15.3833ZM16.0583 13.6392C16.0584 13.6323 16.0585 13.6255 16.0585 13.6186H15.3835C15.3835 13.6203 15.3835 13.6221 15.3834 13.624L16.0583 13.6392ZM16.0585 13.6186V6.80474H15.3835V13.6186H16.0585ZM16.0585 6.80474C16.0585 6.79782 16.0584 6.79096 16.0583 6.78414L15.3834 6.79934C15.3835 6.80116 15.3835 6.80296 15.3835 6.80474H16.0585ZM15.3833 2.83417V6.79174H16.0583V2.83417H15.3833ZM15.1572 2.60801C15.2821 2.60801 15.3833 2.70926 15.3833 2.83417H16.0583C16.0583 2.33647 15.6549 1.93301 15.1572 1.93301V2.60801ZM11.5198 2.60801H15.1572V1.93301H11.5198V2.60801Z" fill="#6FC28B"/>
</svg>
