<svg width="24" height="24" viewBox="0 0 24 24" fill="none" xmlns="http://www.w3.org/2000/svg">
<path d="M7.01274 10.5752C6.22897 10.5752 5.58771 11.2165 5.58771 12.0002C5.58771 12.784 6.22897 13.4253 7.01274 13.4253C7.79651 13.4253 8.43778 12.784 8.43778 12.0002C8.43778 11.2165 7.79651 10.5752 7.01274 10.5752ZM16.988 10.5752C16.2042 10.5752 15.563 11.2165 15.563 12.0002C15.563 12.784 16.2042 13.4253 16.988 13.4253C17.7718 13.4253 18.413 12.784 18.413 12.0002C18.413 11.2165 17.7718 10.5752 16.988 10.5752ZM12.0004 10.5752C11.2166 10.5752 10.5753 11.2165 10.5753 12.0002C10.5753 12.784 11.2166 13.4253 12.0004 13.4253C12.7841 13.4253 13.4254 12.784 13.4254 12.0002C13.4254 11.2165 12.7841 10.5752 12.0004 10.5752Z" fill="#9FA4A9"/>
</svg>
