<svg width="18" height="18" viewBox="0 0 18 18" fill="none" xmlns="http://www.w3.org/2000/svg">
<path fill-rule="evenodd" clip-rule="evenodd" d="M6.29998 15.75C7.33726 15.75 8.28346 15.3786 8.99998 14.7678C9.7165 15.3786 10.6627 15.75 11.7 15.75C13.9367 15.75 15.75 14.0231 15.75 11.8929C15.75 10.7408 15.2197 9.70677 14.3789 9C15.2197 8.29324 15.75 7.25917 15.75 6.10714C15.75 3.9769 13.9367 2.25 11.7 2.25C10.6627 2.25 9.7165 2.62139 8.99998 3.23216C8.28346 2.62139 7.33726 2.25 6.29998 2.25C4.06324 2.25 2.25 3.9769 2.25 6.10714C2.25 7.25917 2.78031 8.29324 3.62111 9C2.78031 9.70677 2.25 10.7408 2.25 11.8929C2.25 14.0231 4.06324 15.75 6.29998 15.75Z" fill="#FFAAB2"/>
<path d="M8.99998 14.7678L9.21893 14.511C9.09277 14.4035 8.9072 14.4035 8.78104 14.511L8.99998 14.7678ZM14.3789 9L14.1617 8.74165C14.0854 8.80578 14.0414 8.90034 14.0414 9C14.0414 9.09966 14.0854 9.19423 14.1617 9.25836L14.3789 9ZM8.99998 3.23216L8.78104 3.48901C8.90719 3.59654 9.09277 3.59654 9.21892 3.48901L8.99998 3.23216ZM3.62111 9L3.83828 9.25836C3.91456 9.19423 3.95861 9.09966 3.95861 9C3.95861 8.90034 3.91456 8.80578 3.83828 8.74165L3.62111 9ZM8.78104 14.511C8.12468 15.0705 7.25582 15.4125 6.29998 15.4125V16.0875C7.41871 16.0875 8.44225 15.6867 9.21893 15.0247L8.78104 14.511ZM11.7 15.4125C10.7441 15.4125 9.87529 15.0705 9.21893 14.511L8.78104 15.0247C9.55772 15.6867 10.5813 16.0875 11.7 16.0875V15.4125ZM15.4125 11.8929C15.4125 13.8214 13.766 15.4125 11.7 15.4125V16.0875C14.1074 16.0875 16.0875 14.2248 16.0875 11.8929H15.4125ZM14.1617 9.25836C14.932 9.90588 15.4125 10.8478 15.4125 11.8929H16.0875C16.0875 10.6338 15.5073 9.50767 14.596 8.74165L14.1617 9.25836ZM15.4125 6.10714C15.4125 7.15217 14.932 8.09413 14.1617 8.74165L14.596 9.25836C15.5073 8.49234 16.0875 7.36617 16.0875 6.10714H15.4125ZM11.7 2.5875C13.766 2.5875 15.4125 4.17862 15.4125 6.10714H16.0875C16.0875 3.77518 14.1074 1.9125 11.7 1.9125V2.5875ZM9.21892 3.48901C9.87529 2.92951 10.7441 2.5875 11.7 2.5875V1.9125C10.5813 1.9125 9.55771 2.31326 8.78104 2.97531L9.21892 3.48901ZM6.29998 2.5875C7.25582 2.5875 8.12467 2.92951 8.78104 3.48901L9.21892 2.97531C8.44225 2.31326 7.41871 1.9125 6.29998 1.9125V2.5875ZM2.5875 6.10714C2.5875 4.17862 4.23393 2.5875 6.29998 2.5875V1.9125C3.89255 1.9125 1.9125 3.77518 1.9125 6.10714H2.5875ZM3.83828 8.74165C3.06796 8.09413 2.5875 7.15217 2.5875 6.10714H1.9125C1.9125 7.36617 2.49265 8.49234 3.40394 9.25836L3.83828 8.74165ZM2.5875 11.8929C2.5875 10.8478 3.06796 9.90588 3.83828 9.25836L3.40394 8.74165C2.49265 9.50767 1.9125 10.6338 1.9125 11.8929H2.5875ZM6.29998 15.4125C4.23393 15.4125 2.5875 13.8214 2.5875 11.8929H1.9125C1.9125 14.2248 3.89255 16.0875 6.29998 16.0875V15.4125Z" fill="#E98E97"/>
</svg>
