<svg width="18" height="18" viewBox="0 0 18 18" fill="none" xmlns="http://www.w3.org/2000/svg">
<path fill-rule="evenodd" clip-rule="evenodd" d="M1.79883 4.08693C1.79883 3.75226 2.07013 3.48096 2.4048 3.48096H4.79285C5.12752 3.48096 5.39882 3.75226 5.39882 4.08693V6.65732H12.5988V4.08693C12.5988 3.75226 12.8701 3.48096 13.2048 3.48096H15.5928C15.9275 3.48096 16.1988 3.75226 16.1988 4.08693V13.675C16.1988 14.0097 15.9275 14.281 15.5928 14.281H13.2048C12.8701 14.281 12.5988 14.0097 12.5988 13.675V11.1044H5.39882V13.675C5.39882 14.0097 5.12752 14.281 4.79285 14.281H2.4048C2.07013 14.281 1.79883 14.0097 1.79883 13.675V4.08693Z" fill="#80CAFF"/>
<path d="M5.39882 6.65732H5.06132V6.99482H5.39882V6.65732ZM12.5988 6.65732V6.99482H12.9363V6.65732H12.5988ZM12.5988 11.1044H12.9363V10.7669H12.5988V11.1044ZM5.39882 11.1044V10.7669H5.06132V11.1044H5.39882ZM2.4048 3.14346C1.88373 3.14346 1.46133 3.56587 1.46133 4.08693H2.13633C2.13633 3.93866 2.25653 3.81846 2.4048 3.81846V3.14346ZM4.79285 3.14346H2.4048V3.81846H4.79285V3.14346ZM5.73632 4.08693C5.73632 3.56586 5.31391 3.14346 4.79285 3.14346V3.81846C4.94112 3.81846 5.06132 3.93866 5.06132 4.08693H5.73632ZM5.73632 6.65732V4.08693H5.06132V6.65732H5.73632ZM5.39882 6.99482H12.5988V6.31982H5.39882V6.99482ZM12.2613 4.08693V6.65732H12.9363V4.08693H12.2613ZM13.2048 3.14346C12.6837 3.14346 12.2613 3.56587 12.2613 4.08693H12.9363C12.9363 3.93866 13.0565 3.81846 13.2048 3.81846V3.14346ZM15.5928 3.14346H13.2048V3.81846H15.5928V3.14346ZM16.5363 4.08693C16.5363 3.56586 16.1139 3.14346 15.5928 3.14346V3.81846C15.7411 3.81846 15.8613 3.93866 15.8613 4.08693H16.5363ZM16.5363 13.675V4.08693H15.8613V13.675H16.5363ZM15.5928 14.6185C16.1139 14.6185 16.5363 14.196 16.5363 13.675H15.8613C15.8613 13.8233 15.7411 13.9435 15.5928 13.9435V14.6185ZM13.2048 14.6185H15.5928V13.9435H13.2048V14.6185ZM12.2613 13.675C12.2613 14.1961 12.6837 14.6185 13.2048 14.6185V13.9435C13.0565 13.9435 12.9363 13.8233 12.9363 13.675H12.2613ZM12.2613 11.1044V13.675H12.9363V11.1044H12.2613ZM12.5988 10.7669H5.39882V11.4419H12.5988V10.7669ZM5.73632 13.675V11.1044H5.06132V13.675H5.73632ZM4.79285 14.6185C5.31392 14.6185 5.73632 14.196 5.73632 13.675H5.06132C5.06132 13.8233 4.94112 13.9435 4.79285 13.9435V14.6185ZM2.4048 14.6185H4.79285V13.9435H2.4048V14.6185ZM1.46133 13.675C1.46133 14.1961 1.88374 14.6185 2.4048 14.6185V13.9435C2.25653 13.9435 2.13633 13.8233 2.13633 13.675H1.46133ZM1.46133 4.08693V13.675H2.13633V4.08693H1.46133Z" fill="#6EAFDD"/>
</svg>
