<svg width="40" height="40" viewBox="0 0 40 40" fill="none" xmlns="http://www.w3.org/2000/svg">
<path d="M18.2685 4.54012C18.445 4.22364 18.6978 3.96106 19.0017 3.77855C19.3056 3.59604 19.6501 3.5 20.0006 3.5C20.3511 3.5 20.6956 3.59604 20.9995 3.77855C21.3034 3.96106 21.5562 4.22364 21.7327 4.54012L26.2154 12.5811L34.9209 14.5519C35.2634 14.6297 35.5803 14.7999 35.8402 15.0456C36.1 15.2912 36.2938 15.6038 36.402 15.952C36.5102 16.3003 36.5292 16.6721 36.457 17.0305C36.3849 17.3888 36.2241 17.7211 35.9907 17.9942L30.0565 24.9341L30.9547 34.1935C30.9901 34.5581 30.9334 34.926 30.7902 35.2606C30.647 35.5951 30.4223 35.8845 30.1385 36.0999C29.8548 36.3153 29.522 36.4492 29.1732 36.4881C28.8245 36.5271 28.4721 36.4698 28.1512 36.3219L20.0006 32.5679L11.85 36.3219C11.5291 36.4698 11.1767 36.5271 10.828 36.4881C10.4792 36.4492 10.1464 36.3153 9.86265 36.0999C9.57892 35.8845 9.35423 35.5951 9.21102 35.2606C9.0678 34.926 9.01108 34.5581 9.04651 34.1935L9.94465 24.9341L4.01052 17.9959C3.77673 17.7228 3.61559 17.3904 3.54319 17.0318C3.47079 16.6733 3.48966 16.3011 3.59793 15.9526C3.70619 15.604 3.90005 15.2913 4.16017 15.0455C4.42028 14.7997 4.73754 14.6295 5.08027 14.5519L13.7858 12.5811L18.2685 4.54012Z" fill="url(#paint0_linear_418_59623)" stroke="#8E77F5" stroke-width="1.5"/>
<defs>
<linearGradient id="paint0_linear_418_59623" x1="5.48" y1="21.65" x2="35.1475" y2="20.6677" gradientUnits="userSpaceOnUse">
<stop stop-color="#AE9CFF"/>
<stop offset="1" stop-color="#E09EFF"/>
</linearGradient>
</defs>
</svg>
